<svg width="500" height="520" xmlns="http://www.w3.org/2000/svg" version="1.1"><g transform="translate(0,10)"><g><path class="link" d="M255,303.1625577812019C372.5,303.1625577812019 372.5,75.11171032357473 490,75.11171032357473" style="stroke-width: 57.8659; fill: none; stroke: rgb(191, 105, 145); stroke-opacity: 0.4;"></path><path class="link" d="M10,46.0824345146379C127.5,46.0824345146379 127.5,81.0824345146379 245,81.0824345146379" style="stroke-width: 52.1649; fill: none; stroke: rgb(105, 191, 171); stroke-opacity: 0.4;"></path><path class="link" d="M255,125.9784283513097C372.5,125.9784283513097 372.5,138.84437596302004 490,138.84437596302004" style="stroke-width: 49.5994; fill: none; stroke: rgb(191, 105, 184); stroke-opacity: 0.4;"></path><path class="link" d="M255,78.08936825885978C372.5,78.08936825885978 372.5,23.089368258859782 490,23.089368258859782" style="stroke-width: 46.1787; fill: none; stroke: rgb(191, 105, 184); stroke-opacity: 0.4;"></path><path class="link" d="M255,203.79815100154082C372.5,203.79815100154082 372.5,270.01540832049307 490,270.01540832049307" style="stroke-width: 43.3282; fill: none; stroke: rgb(191, 105, 184); stroke-opacity: 0.4;"></path><path class="link" d="M10,127.63097072419106C127.5,127.63097072419106 127.5,125.26579352850538 245,125.26579352850538" style="stroke-width: 36.2018; fill: none; stroke: rgb(191, 105, 105); stroke-opacity: 0.4;"></path><path class="link" d="M10,198.9175654853621C127.5,198.9175654853621 127.5,159.47226502311247 245,159.47226502311247" style="stroke-width: 32.2111; fill: none; stroke: rgb(191, 145, 105); stroke-opacity: 0.4;"></path><path class="link" d="M255,166.45608628659477C372.5,166.45608628659477 372.5,197.87365177195687 490,197.87365177195687" style="stroke-width: 31.3559; fill: none; stroke: rgb(191, 105, 184); stroke-opacity: 0.4;"></path><path class="link" d="M255,349.9114021571649C372.5,349.9114021571649 372.5,224.2411402157165 490,224.2411402157165" style="stroke-width: 21.379; fill: none; stroke: rgb(191, 105, 145); stroke-opacity: 0.4;"></path><path class="link" d="M10,155.28120184899845C127.5,155.28120184899845 127.5,298.31664098613254 245,298.31664098613254" style="stroke-width: 19.0986; fill: none; stroke: rgb(191, 105, 105); stroke-opacity: 0.4;"></path><path class="link" d="M10,302.0107858243452C127.5,302.0107858243452 127.5,201.517719568567 245,201.517719568567" style="stroke-width: 18.8136; fill: none; stroke: rgb(118, 191, 105); stroke-opacity: 0.4;"></path><path class="link" d="M10,363.32049306625584C127.5,363.32049306625584 127.5,362.5963020030817 245,362.5963020030817" style="stroke-width: 17.1032; fill: none; stroke: rgb(191, 184, 105); stroke-opacity: 0.4;"></path><path class="link" d="M10,433.7750385208013C127.5,433.7750385208013 127.5,249.69183359013866 245,249.69183359013866" style="stroke-width: 17.1032; fill: none; stroke: rgb(105, 191, 131); stroke-opacity: 0.4;"></path><path class="link" d="M10,223.57473035439136C127.5,223.57473035439136 127.5,316.4175654853621 245,316.4175654853621" style="stroke-width: 17.1032; fill: none; stroke: rgb(191, 145, 105); stroke-opacity: 0.4;"></path><path class="link" d="M10,253.5285053929122C127.5,253.5285053929122 127.5,183.84437596302 245,183.84437596302" style="stroke-width: 16.5331; fill: none; stroke: rgb(158, 191, 105); stroke-opacity: 0.4;"></path><path class="link" d="M10,346.64483821263485C127.5,346.64483821263485 127.5,219.04853620955313 245,219.04853620955313" style="stroke-width: 16.2481; fill: none; stroke: rgb(191, 184, 105); stroke-opacity: 0.4;"></path><path class="link" d="M10,319.1140215716487C127.5,319.1140215716487 127.5,346.3482280431433 245,346.3482280431433" style="stroke-width: 15.3929; fill: none; stroke: rgb(118, 191, 105); stroke-opacity: 0.4;"></path><path class="link" d="M10,79.4337442218798C127.5,79.4337442218798 127.5,281.4984591679507 245,281.4984591679507" style="stroke-width: 14.5378; fill: none; stroke: rgb(105, 191, 171); stroke-opacity: 0.4;"></path><path class="link" d="M10,390.85130970724197C127.5,390.85130970724197 127.5,234.1563944530046 245,234.1563944530046" style="stroke-width: 13.9676; fill: none; stroke: rgb(105, 171, 191); stroke-opacity: 0.4;"></path><path class="link" d="M10,268.6363636363636C127.5,268.6363636363636 127.5,331.8104776579353 245,331.8104776579353" style="stroke-width: 13.6826; fill: none; stroke: rgb(158, 191, 105); stroke-opacity: 0.4;"></path><path class="link" d="M10,404.248844375963C127.5,404.248844375963 127.5,377.56163328197226 245,377.56163328197226" style="stroke-width: 12.8274; fill: none; stroke: rgb(105, 171, 191); stroke-opacity: 0.4;"></path><path class="link" d="M10,93.11633281972264C127.5,93.11633281972264 127.5,401.52927580893686 245,401.52927580893686" style="stroke-width: 12.8274; fill: none; stroke: rgb(105, 191, 171); stroke-opacity: 0.4;"></path><path class="link" d="M255,231.4483821263482C372.5,231.4483821263482 372.5,314.2218798151002 490,314.2218798151002" style="stroke-width: 11.9723; fill: none; stroke: rgb(191, 105, 184); stroke-opacity: 0.4;"></path><path class="link" d="M255,376.99152542372883C372.5,376.99152542372883 372.5,380.5431432973806 490,380.5431432973806" style="stroke-width: 8.83667; fill: none; stroke: rgb(191, 105, 145); stroke-opacity: 0.4;"></path><path class="link" d="M255,413.50154083204933C372.5,413.50154083204933 372.5,356.57550077041606 490,356.57550077041606" style="stroke-width: 8.83667; fill: none; stroke: rgb(158, 105, 191); stroke-opacity: 0.4;"></path><path class="link" d="M10,168.82126348228044C127.5,168.82126348228044 127.5,411.93374422187986 245,411.93374422187986" style="stroke-width: 7.98151; fill: none; stroke: rgb(191, 105, 105); stroke-opacity: 0.4;"></path><path class="link" d="M255,431.17488443759635C372.5,431.17488443759635 372.5,440.1887519260401 490,440.1887519260401" style="stroke-width: 7.69646; fill: none; stroke: rgb(158, 105, 191); stroke-opacity: 0.4;"></path><path class="link" d="M255,241.14021571648686C372.5,241.14021571648686 372.5,344.7457627118644 490,344.7457627118644" style="stroke-width: 7.4114; fill: none; stroke: rgb(191, 105, 184); stroke-opacity: 0.4;"></path><path class="link" d="M10,466.00924499229586C127.5,466.00924499229586 127.5,441.2942989214176 245,441.2942989214176" style="stroke-width: 7.4114; fill: none; stroke: rgb(105, 131, 191); stroke-opacity: 0.4;"></path><path class="link" d="M10,279.0408320493067C127.5,279.0408320493067 127.5,422.6232665639446 245,422.6232665639446" style="stroke-width: 7.12635; fill: none; stroke: rgb(158, 191, 105); stroke-opacity: 0.4;"></path><path class="link" d="M255,253.54006163328194C372.5,253.54006163328194 372.5,398.5246533127889 490,398.5246533127889" style="stroke-width: 7.12635; fill: none; stroke: rgb(191, 105, 184); stroke-opacity: 0.4;"></path><path class="link" d="M255,335.65870570107865C372.5,335.65870570107865 372.5,167.20724191063172 490,167.20724191063172" style="stroke-width: 7.12635; fill: none; stroke: rgb(191, 105, 145); stroke-opacity: 0.4;"></path><path class="link" d="M255,405.6625577812019C372.5,405.6625577812019 372.5,327.6194144838213 490,327.6194144838213" style="stroke-width: 6.84129; fill: none; stroke: rgb(158, 105, 191); stroke-opacity: 0.4;"></path><path class="link" d="M255,424.33359013867494C372.5,424.33359013867494 372.5,421.92218798151 490,421.92218798151" style="stroke-width: 5.98613; fill: none; stroke: rgb(158, 105, 191); stroke-opacity: 0.4;"></path><path class="link" d="M255,438.01617873651776C372.5,438.01617873651776 372.5,457.03004622496144 490,457.03004622496144" style="stroke-width: 5.98613; fill: none; stroke: rgb(158, 105, 191); stroke-opacity: 0.4;"></path><path class="link" d="M10,458.3127889060093C127.5,458.3127889060093 127.5,261.0939907550077 245,261.0939907550077" style="stroke-width: 5.70108; fill: none; stroke: rgb(105, 131, 191); stroke-opacity: 0.4;"></path><path class="link" d="M255,247.41140215716484C372.5,247.41140215716484 372.5,373.55932203389835 490,373.55932203389835" style="stroke-width: 5.13097; fill: none; stroke: rgb(191, 105, 184); stroke-opacity: 0.4;"></path><path class="link" d="M10,412.94298921417567C127.5,412.94298921417567 127.5,432.1725731895224 245,432.1725731895224" style="stroke-width: 4.56086; fill: none; stroke: rgb(105, 171, 191); stroke-opacity: 0.4;"></path><path class="link" d="M255,362.7388289676426C372.5,362.7388289676426 372.5,293.8174114021572 490,293.8174114021572" style="stroke-width: 4.27581; fill: none; stroke: rgb(191, 105, 145); stroke-opacity: 0.4;"></path><path class="link" d="M255,366.87211093990754C372.5,366.87211093990754 372.5,322.20338983050846 490,322.20338983050846" style="stroke-width: 3.99076; fill: none; stroke: rgb(191, 105, 145); stroke-opacity: 0.4;"></path><path class="link" d="M255,442.86209553158716C372.5,442.86209553158716 372.5,471.87596302003084 490,471.87596302003084" style="stroke-width: 3.7057; fill: none; stroke: rgb(158, 105, 191); stroke-opacity: 0.4;"></path><path class="link" d="M255,370.7203389830509C372.5,370.7203389830509 372.5,350.3043143297381 490,350.3043143297381" style="stroke-width: 3.7057; fill: none; stroke: rgb(191, 105, 145); stroke-opacity: 0.4;"></path><path class="link" d="M255,398.25115562403704C372.5,398.25115562403704 372.5,236.64098613251156 490,236.64098613251156" style="stroke-width: 3.42065; fill: none; stroke: rgb(158, 105, 191); stroke-opacity: 0.4;"></path><path class="link" d="M255,419.6302003081665C372.5,419.6302003081665 372.5,403.7981510015408 490,403.7981510015408" style="stroke-width: 3.42065; fill: none; stroke: rgb(158, 105, 191); stroke-opacity: 0.4;"></path><path class="link" d="M10,443.8944530046225C127.5,443.8944530046225 127.5,436.0208012326657 245,436.0208012326657" style="stroke-width: 3.13559; fill: none; stroke: rgb(105, 191, 131); stroke-opacity: 0.4;"></path><path class="link" d="M255,258.671032357473C372.5,258.671032357473 372.5,417.07627118644064 490,417.07627118644064" style="stroke-width: 3.13559; fill: none; stroke: rgb(191, 105, 184); stroke-opacity: 0.4;"></path><path class="link" d="M10,233.69414483821265C127.5,233.69414483821265 127.5,417.4922958397535 245,417.4922958397535" style="stroke-width: 3.13559; fill: none; stroke: rgb(191, 145, 105); stroke-opacity: 0.4;"></path><path class="link" d="M255,401.1016949152543C372.5,401.1016949152543 372.5,297.095531587057 490,297.095531587057" style="stroke-width: 2.28043; fill: none; stroke: rgb(158, 105, 191); stroke-opacity: 0.4;"></path><path class="link" d="M10,372.86979969183363C127.5,372.86979969183363 127.5,428.89445300462256 245,428.89445300462256" style="stroke-width: 1.99538; fill: none; stroke: rgb(191, 184, 105); stroke-opacity: 0.4;"></path><path class="link" d="M255,384.11787365177196C372.5,384.11787365177196 372.5,499.00231124807397 490,499.00231124807397" style="stroke-width: 1.99538; fill: none; stroke: rgb(191, 105, 145); stroke-opacity: 0.4;"></path><path class="link" d="M10,327.6656394453005C127.5,327.6656394453005 127.5,427.0416024653314 245,427.0416024653314" style="stroke-width: 1.71032; fill: none; stroke: rgb(118, 191, 105); stroke-opacity: 0.4;"></path><path class="link" d="M255,262.51926040061636C372.5,262.51926040061636 372.5,484.5839753466872 490,484.5839753466872" style="stroke-width: 1.71032; fill: none; stroke: rgb(191, 105, 184); stroke-opacity: 0.4;"></path><path class="link" d="M255,382.40755007704166C372.5,382.40755007704166 372.5,486.1517719568567 490,486.1517719568567" style="stroke-width: 1.42527; fill: none; stroke: rgb(191, 105, 145); stroke-opacity: 0.4;"></path><path class="link" d="M255,260.95146379044684C372.5,260.95146379044684 372.5,435.62788906009246 490,435.62788906009246" style="stroke-width: 1.42527; fill: none; stroke: rgb(191, 105, 184); stroke-opacity: 0.4;"></path><path class="link" d="M255,395.82819722650237C372.5,395.82819722650237 372.5,171.48305084745763 490,171.48305084745763" style="stroke-width: 1.42527; fill: none; stroke: rgb(158, 105, 191); stroke-opacity: 0.4;"></path><path class="link" d="M10,461.73343605546995C127.5,461.73343605546995 127.5,384.54545454545456 245,384.54545454545456" style="stroke-width: 1.14022; fill: none; stroke: rgb(105, 131, 191); stroke-opacity: 0.4;"></path><path class="link" d="M255,263.8020030816641C372.5,263.8020030816641 372.5,497.57704160246533 490,497.57704160246533" style="stroke-width: 1; fill: none; stroke: rgb(191, 105, 184); stroke-opacity: 0.4;"></path><path class="link" d="M255,444.8574730354392C372.5,444.8574730354392 372.5,487.0069337442219 490,487.0069337442219" style="stroke-width: 1; fill: none; stroke: rgb(158, 105, 191); stroke-opacity: 0.4;"></path><path class="link" d="M10,479.8574730354392C127.5,479.8574730354392 127.5,264.0870570107858 245,264.0870570107858" style="stroke-width: 1; fill: none; stroke: rgb(118, 105, 191); stroke-opacity: 0.4;"></path><path class="link" d="M255,381.55238828967646C372.5,381.55238828967646 372.5,418.78659476117105 490,418.78659476117105" style="stroke-width: 1; fill: none; stroke: rgb(191, 105, 145); stroke-opacity: 0.4;"></path></g><g><g class="node" transform="translate(0,479.71494607087834)"><rect height="0.2850539291217257" width="10"><title>#N/A
1</title></rect><text x="16" y="0.14252696456086286" dy=".35em" text-anchor="start" style="font-size: 11px; font-family: Arial, Helvetica; pointer-events: none;">#N/A</text></g><g class="node" transform="translate(0,109.53004622496148)"><rect height="63.281972265023114" width="10"><title>Drugs
222</title></rect><text x="16" y="31.640986132511557" dy=".35em" text-anchor="start" style="font-size: 11px; font-family: Arial, Helvetica; pointer-events: none;">Drugs</text></g><g class="node" transform="translate(0,20)"><rect height="79.53004622496148" width="10"><title>HTC 
279</title></rect><text x="16" y="39.76502311248074" dy=".35em" text-anchor="start" style="font-size: 11px; font-family: Arial, Helvetica; pointer-events: none;">HTC </text></g><g class="node" transform="translate(0,182.8120184899846)"><rect height="52.449922958397536" width="10"><title>Linkage 
184</title></rect><text x="16" y="26.224961479198768" dy=".35em" text-anchor="start" style="font-size: 11px; font-family: Arial, Helvetica; pointer-events: none;">Linkage </text></g><g class="node" transform="translate(0,383.86748844375967)"><rect height="31.35593220338983" width="10"><title>Performance management 
110</title></rect><text x="16" y="15.677966101694915" dy=".35em" text-anchor="start" style="font-size: 11px; font-family: Arial, Helvetica; pointer-events: none;">Performance management </text></g><g class="node" transform="translate(0,292.6040061633282)"><rect height="35.91679506933744" width="10"><title>PMTCT
126</title></rect><text x="16" y="17.95839753466872" dy=".35em" text-anchor="start" style="font-size: 11px; font-family: Arial, Helvetica; pointer-events: none;">PMTCT</text></g><g class="node" transform="translate(0,245.26194144838215)"><rect height="37.34206471494607" width="10"><title>Program Efficiency
131</title></rect><text x="16" y="18.671032357473035" dy=".35em" text-anchor="start" style="font-size: 11px; font-family: Arial, Helvetica; pointer-events: none;">Program Efficiency</text></g><g class="node" transform="translate(0,425.2234206471495)"><rect height="20.238828967642526" width="10"><title>Resource targeting 
71</title></rect><text x="16" y="10.119414483821263" dy=".35em" text-anchor="start" style="font-size: 11px; font-family: Arial, Helvetica; pointer-events: none;">Resource targeting </text></g><g class="node" transform="translate(0,338.5208012326657)"><rect height="35.34668721109399" width="10"><title>Retention
124</title></rect><text x="16" y="17.673343605546997" dy=".35em" text-anchor="start" style="font-size: 11px; font-family: Arial, Helvetica; pointer-events: none;">Retention</text></g><g class="node" transform="translate(0,455.46224961479203)"><rect height="14.252696456086285" width="10"><title>VMMC 
50</title></rect><text x="16" y="7.126348228043143" dy=".35em" text-anchor="start" style="font-size: 11px; font-family: Arial, Helvetica; pointer-events: none;">VMMC </text></g><g class="node" transform="translate(245,395.11556240369805)"><rect height="49.884437596302" width="10"><title>Central
175</title></rect><text x="16" y="24.942218798151" dy=".35em" text-anchor="start" style="font-size: 11px; font-family: Arial, Helvetica; pointer-events: none;">Central</text></g><g class="node" transform="translate(245,55)"><rect height="209.22958397534669" width="10"><title>District
734</title></rect><text x="16" y="104.61479198767334" dy=".35em" text-anchor="start" style="font-size: 11px; font-family: Arial, Helvetica; pointer-events: none;">District</text></g><g class="node" transform="translate(245,274.2295839753467)"><rect height="110.88597842835131" width="10"><title>Facility
389</title></rect><text x="16" y="55.442989214175654" dy=".35em" text-anchor="start" style="font-size: 11px; font-family: Arial, Helvetica; pointer-events: none;">Facility</text></g><g class="node" transform="translate(490,483.728813559322)"><rect height="3.4206471494607085" width="10" style="fill: rgb(102, 102, 102);"><title>
12</title></rect><text x="-6" y="1.7103235747303542" dy=".35em" text-anchor="end" style="font-size: 11px; font-family: Arial, Helvetica; pointer-events: none;"></text></g><g class="node" transform="translate(490,394.96147919876734)"><rect height="10.546995377503851" width="10" style="fill: rgb(102, 102, 102);"><title>Electronic System 
37</title></rect><text x="-6" y="5.273497688751926" dy=".35em" text-anchor="end" style="font-size: 11px; font-family: Arial, Helvetica; pointer-events: none;">Electronic System </text></g><g class="node" transform="translate(490,308.2357473035439)"><rect height="22.80431432973806" width="10" style="fill: rgb(102, 102, 102);"><title>External Partner
80</title></rect><text x="-6" y="11.40215716486903" dy=".35em" text-anchor="end" style="font-size: 11px; font-family: Arial, Helvetica; pointer-events: none;">External Partner</text></g><g class="node" transform="translate(490,497.1494607087827)"><rect height="2.8505392912172574" width="10" style="fill: rgb(102, 102, 102);"><title>Guideline 
10</title></rect><text x="-6" y="1.4252696456086287" dy=".35em" text-anchor="end" style="font-size: 11px; font-family: Arial, Helvetica; pointer-events: none;">Guideline </text></g><g class="node" transform="translate(490,470.0231124807396)"><rect height="3.7057010785824342" width="10" style="fill: rgb(102, 102, 102);"><title>Management Tool
13</title></rect><text x="-6" y="1.8528505392912171" dy=".35em" text-anchor="end" style="font-size: 11px; font-family: Arial, Helvetica; pointer-events: none;">Management Tool</text></g><g class="node" transform="translate(490,415.50847457627117)"><rect height="9.406779661016948" width="10" style="fill: rgb(102, 102, 102);"><title>Meeting or group
33</title></rect><text x="-6" y="4.703389830508474" dy=".35em" text-anchor="end" style="font-size: 11px; font-family: Arial, Helvetica; pointer-events: none;">Meeting or group</text></g><g class="node" transform="translate(490,341.040061633282)"><rect height="19.9537750385208" width="10" style="fill: rgb(102, 102, 102);"><title>NA
70</title></rect><text x="-6" y="9.9768875192604" dy=".35em" text-anchor="end" style="font-size: 11px; font-family: Arial, Helvetica; pointer-events: none;">NA</text></g><g class="node" transform="translate(490,434.91525423728814)"><rect height="9.121725731895223" width="10" style="fill: rgb(102, 102, 102);"><title>Other
32</title></rect><text x="-6" y="4.560862865947612" dy=".35em" text-anchor="end" style="font-size: 11px; font-family: Arial, Helvetica; pointer-events: none;">Other</text></g><g class="node" transform="translate(490,370.9938366718028)"><rect height="13.96764252696456" width="10" style="fill: rgb(102, 102, 102);"><title>Patient Card
49</title></rect><text x="-6" y="6.98382126348228" dy=".35em" text-anchor="end" style="font-size: 11px; font-family: Arial, Helvetica; pointer-events: none;">Patient Card</text></g><g class="node" transform="translate(490,248.3513097072419)"><rect height="49.884437596302" width="10" style="fill: rgb(102, 102, 102);"><title>Person
175</title></rect><text x="-6" y="24.942218798151" dy=".35em" text-anchor="end" style="font-size: 11px; font-family: Arial, Helvetica; pointer-events: none;">Person</text></g><g class="node" transform="translate(490,182.19568567026195)"><rect height="56.155624036979965" width="10" style="fill: rgb(102, 102, 102);"><title>Program Office or Location
197</title></rect><text x="-6" y="28.077812018489983" dy=".35em" text-anchor="end" style="font-size: 11px; font-family: Arial, Helvetica; pointer-events: none;">Program Office or Location</text></g><g class="node" transform="translate(490,0)"><rect height="104.0446841294299" width="10" style="fill: rgb(102, 102, 102);"><title>Register
365</title></rect><text x="-6" y="52.02234206471495" dy=".35em" text-anchor="end" style="font-size: 11px; font-family: Arial, Helvetica; pointer-events: none;">Register</text></g><g class="node" transform="translate(490,114.0446841294299)"><rect height="58.15100154083205" width="10" style="fill: rgb(102, 102, 102);"><title>Report
204</title></rect><text x="-6" y="29.075500770416024" dy=".35em" text-anchor="end" style="font-size: 11px; font-family: Arial, Helvetica; pointer-events: none;">Report</text></g><g class="node" transform="translate(490,454.03697996918334)"><rect height="5.9861325115562405" width="10" style="fill: rgb(102, 102, 102);"><title>Research
21</title></rect><text x="-6" y="2.9930662557781202" dy=".35em" text-anchor="end" style="font-size: 11px; font-family: Arial, Helvetica; pointer-events: none;">Research</text></g></g></g></svg>